<mxfile modified="2023-06-11T23:03:34.049Z" host="app.diagrams.net" agent="Mozilla/5.0 (Windows NT 10.0; Win64; x64) AppleWebKit/537.36 (KHTML, like Gecko) Chrome/114.0.0.0 Safari/537.36" etag="OxaZQPBGwH9ZN-PCmydl" version="21.3.8" type="google">
  <diagram id="Ht1M8jgEwFfnCIfOTk4-" name="Page-1">
    <mxGraphModel grid="1" page="1" gridSize="10" guides="1" tooltips="1" connect="1" arrows="1" fold="1" pageScale="1" pageWidth="1169" pageHeight="827" math="0" shadow="0">
      <root>
        <mxCell id="0" />
        <mxCell id="1" parent="0" />
        <mxCell id="NDqvce5x4KAgi2hU4wCc-32" style="edgeStyle=orthogonalEdgeStyle;rounded=0;orthogonalLoop=1;jettySize=auto;html=1;" edge="1" parent="1" target="NDqvce5x4KAgi2hU4wCc-30">
          <mxGeometry relative="1" as="geometry">
            <mxPoint x="208" y="235" as="sourcePoint" />
          </mxGeometry>
        </mxCell>
        <mxCell id="NDqvce5x4KAgi2hU4wCc-64" style="edgeStyle=orthogonalEdgeStyle;rounded=0;orthogonalLoop=1;jettySize=auto;html=1;" edge="1" parent="1" target="NDqvce5x4KAgi2hU4wCc-58">
          <mxGeometry relative="1" as="geometry">
            <mxPoint x="660" y="386" as="targetPoint" />
            <mxPoint x="169" y="304" as="sourcePoint" />
            <Array as="points">
              <mxPoint x="169" y="346" />
            </Array>
          </mxGeometry>
        </mxCell>
        <mxCell id="NDqvce5x4KAgi2hU4wCc-71" style="edgeStyle=orthogonalEdgeStyle;rounded=0;orthogonalLoop=1;jettySize=auto;html=1;" edge="1" parent="1" source="NDqvce5x4KAgi2hU4wCc-25" target="NDqvce5x4KAgi2hU4wCc-58">
          <mxGeometry relative="1" as="geometry" />
        </mxCell>
        <mxCell id="FXVNpTH87vf8RIV1V4n3-1" style="edgeStyle=orthogonalEdgeStyle;rounded=0;orthogonalLoop=1;jettySize=auto;html=1;" edge="1" parent="1" source="NDqvce5x4KAgi2hU4wCc-25" target="NDqvce5x4KAgi2hU4wCc-102">
          <mxGeometry relative="1" as="geometry">
            <Array as="points">
              <mxPoint x="510" y="50" />
            </Array>
          </mxGeometry>
        </mxCell>
        <mxCell id="NDqvce5x4KAgi2hU4wCc-25" value="Amazon Kinesis Data Firehose" style="sketch=0;outlineConnect=0;fontColor=#232F3E;gradientColor=none;strokeColor=#ffffff;fillColor=#232F3E;dashed=0;verticalLabelPosition=middle;verticalAlign=bottom;align=center;html=1;whiteSpace=wrap;fontSize=10;fontStyle=1;spacing=3;shape=mxgraph.aws4.productIcon;prIcon=mxgraph.aws4.kinesis_data_firehose;" vertex="1" parent="1">
          <mxGeometry x="470" y="156" width="80" height="120" as="geometry" />
        </mxCell>
        <mxCell id="NDqvce5x4KAgi2hU4wCc-31" style="edgeStyle=orthogonalEdgeStyle;rounded=0;orthogonalLoop=1;jettySize=auto;html=1;" edge="1" parent="1" source="NDqvce5x4KAgi2hU4wCc-30" target="NDqvce5x4KAgi2hU4wCc-25">
          <mxGeometry relative="1" as="geometry">
            <Array as="points">
              <mxPoint x="510" y="440" />
            </Array>
          </mxGeometry>
        </mxCell>
        <mxCell id="NDqvce5x4KAgi2hU4wCc-34" style="edgeStyle=orthogonalEdgeStyle;rounded=0;orthogonalLoop=1;jettySize=auto;html=1;startArrow=classic;startFill=1;" edge="1" parent="1" source="NDqvce5x4KAgi2hU4wCc-30" target="NDqvce5x4KAgi2hU4wCc-33">
          <mxGeometry relative="1" as="geometry">
            <Array as="points">
              <mxPoint x="390" y="426" />
            </Array>
          </mxGeometry>
        </mxCell>
        <mxCell id="NDqvce5x4KAgi2hU4wCc-37" style="edgeStyle=orthogonalEdgeStyle;rounded=0;orthogonalLoop=1;jettySize=auto;html=1;" edge="1" parent="1" source="NDqvce5x4KAgi2hU4wCc-30" target="NDqvce5x4KAgi2hU4wCc-35">
          <mxGeometry relative="1" as="geometry">
            <Array as="points">
              <mxPoint x="490" y="480" />
            </Array>
          </mxGeometry>
        </mxCell>
        <mxCell id="NDqvce5x4KAgi2hU4wCc-65" style="edgeStyle=orthogonalEdgeStyle;rounded=0;orthogonalLoop=1;jettySize=auto;html=1;entryX=0.013;entryY=0.609;entryDx=0;entryDy=0;entryPerimeter=0;" edge="1" parent="1" source="NDqvce5x4KAgi2hU4wCc-30" target="NDqvce5x4KAgi2hU4wCc-58">
          <mxGeometry relative="1" as="geometry">
            <Array as="points">
              <mxPoint x="530" y="460" />
              <mxPoint x="530" y="399" />
            </Array>
          </mxGeometry>
        </mxCell>
        <mxCell id="NDqvce5x4KAgi2hU4wCc-30" value="Amazon Kinesis Data Streams" style="sketch=0;outlineConnect=0;fontColor=#232F3E;gradientColor=none;strokeColor=#ffffff;fillColor=#232F3E;dashed=0;verticalLabelPosition=middle;verticalAlign=bottom;align=center;html=1;whiteSpace=wrap;fontSize=10;fontStyle=1;spacing=3;shape=mxgraph.aws4.productIcon;prIcon=mxgraph.aws4.kinesis_data_streams;" vertex="1" parent="1">
          <mxGeometry x="250" y="416" width="80" height="120" as="geometry" />
        </mxCell>
        <mxCell id="NDqvce5x4KAgi2hU4wCc-70" style="edgeStyle=orthogonalEdgeStyle;rounded=0;orthogonalLoop=1;jettySize=auto;html=1;" edge="1" parent="1" source="NDqvce5x4KAgi2hU4wCc-33" target="NDqvce5x4KAgi2hU4wCc-58">
          <mxGeometry relative="1" as="geometry">
            <Array as="points">
              <mxPoint x="410" y="316" />
              <mxPoint x="700" y="316" />
            </Array>
          </mxGeometry>
        </mxCell>
        <mxCell id="NDqvce5x4KAgi2hU4wCc-33" value="Amazon Kinesis Data Analytics" style="sketch=0;outlineConnect=0;fontColor=#232F3E;gradientColor=none;strokeColor=#ffffff;fillColor=#232F3E;dashed=0;verticalLabelPosition=middle;verticalAlign=bottom;align=center;html=1;whiteSpace=wrap;fontSize=10;fontStyle=1;spacing=3;shape=mxgraph.aws4.productIcon;prIcon=mxgraph.aws4.kinesis_data_analytics;" vertex="1" parent="1">
          <mxGeometry x="350" y="156" width="80" height="120" as="geometry" />
        </mxCell>
        <mxCell id="NDqvce5x4KAgi2hU4wCc-54" style="edgeStyle=orthogonalEdgeStyle;rounded=0;orthogonalLoop=1;jettySize=auto;html=1;entryX=0;entryY=0.5;entryDx=0;entryDy=0;entryPerimeter=0;startArrow=classic;startFill=1;" edge="1" parent="1" source="NDqvce5x4KAgi2hU4wCc-35">
          <mxGeometry relative="1" as="geometry">
            <mxPoint x="570" y="729" as="targetPoint" />
            <Array as="points">
              <mxPoint x="491" y="729" />
            </Array>
          </mxGeometry>
        </mxCell>
        <mxCell id="NDqvce5x4KAgi2hU4wCc-67" style="edgeStyle=orthogonalEdgeStyle;rounded=0;orthogonalLoop=1;jettySize=auto;html=1;" edge="1" parent="1" source="NDqvce5x4KAgi2hU4wCc-35" target="NDqvce5x4KAgi2hU4wCc-58">
          <mxGeometry relative="1" as="geometry">
            <Array as="points">
              <mxPoint x="510" y="526" />
              <mxPoint x="710" y="526" />
            </Array>
          </mxGeometry>
        </mxCell>
        <mxCell id="NDqvce5x4KAgi2hU4wCc-35" value="Amazon SageMaker" style="sketch=0;outlineConnect=0;fontColor=#232F3E;gradientColor=none;strokeColor=#ffffff;fillColor=#232F3E;dashed=0;verticalLabelPosition=middle;verticalAlign=bottom;align=center;html=1;whiteSpace=wrap;fontSize=10;fontStyle=1;spacing=3;shape=mxgraph.aws4.productIcon;prIcon=mxgraph.aws4.sagemaker;" vertex="1" parent="1">
          <mxGeometry x="451" y="580" width="80" height="110" as="geometry" />
        </mxCell>
        <mxCell id="NDqvce5x4KAgi2hU4wCc-69" style="edgeStyle=orthogonalEdgeStyle;rounded=0;orthogonalLoop=1;jettySize=auto;html=1;" edge="1" parent="1" source="NDqvce5x4KAgi2hU4wCc-100" target="NDqvce5x4KAgi2hU4wCc-58">
          <mxGeometry relative="1" as="geometry">
            <mxPoint x="740" y="446" as="targetPoint" />
            <mxPoint x="800.5" y="690" as="sourcePoint" />
            <Array as="points">
              <mxPoint x="780" y="570" />
              <mxPoint x="750" y="570" />
            </Array>
          </mxGeometry>
        </mxCell>
        <mxCell id="NDqvce5x4KAgi2hU4wCc-48" value="&lt;span style=&quot;color: rgb(35, 47, 62); font-family: Helvetica; font-size: 12px; font-style: normal; font-variant-ligatures: normal; font-variant-caps: normal; font-weight: 400; letter-spacing: normal; orphans: 2; text-indent: 0px; text-transform: none; widows: 2; word-spacing: 0px; -webkit-text-stroke-width: 0px; background-color: rgb(255, 255, 255); text-decoration-thickness: initial; text-decoration-style: initial; text-decoration-color: initial; float: none; display: inline !important;&quot;&gt;Amazon API&lt;/span&gt;&lt;br style=&quot;border-color: var(--border-color); color: rgb(35, 47, 62); font-family: Helvetica; font-size: 12px; font-style: normal; font-variant-ligatures: normal; font-variant-caps: normal; font-weight: 400; letter-spacing: normal; orphans: 2; text-indent: 0px; text-transform: none; widows: 2; word-spacing: 0px; -webkit-text-stroke-width: 0px; text-decoration-thickness: initial; text-decoration-style: initial; text-decoration-color: initial;&quot;&gt;&lt;span style=&quot;color: rgb(35, 47, 62); font-family: Helvetica; font-size: 12px; font-style: normal; font-variant-ligatures: normal; font-variant-caps: normal; font-weight: 400; letter-spacing: normal; orphans: 2; text-indent: 0px; text-transform: none; widows: 2; word-spacing: 0px; -webkit-text-stroke-width: 0px; background-color: rgb(255, 255, 255); text-decoration-thickness: initial; text-decoration-style: initial; text-decoration-color: initial; float: none; display: inline !important;&quot;&gt;Gateway&lt;/span&gt;" style="text;strokeColor=none;fillColor=none;align=center;verticalAlign=middle;spacingLeft=4;spacingRight=4;overflow=hidden;points=[[0,0.5],[1,0.5]];portConstraint=eastwest;rotatable=0;whiteSpace=wrap;html=1;" vertex="1" parent="1">
          <mxGeometry x="711" y="776" width="81" height="32" as="geometry" />
        </mxCell>
        <mxCell id="NDqvce5x4KAgi2hU4wCc-68" style="edgeStyle=orthogonalEdgeStyle;rounded=0;orthogonalLoop=1;jettySize=auto;html=1;" edge="1" parent="1" source="NDqvce5x4KAgi2hU4wCc-96" target="NDqvce5x4KAgi2hU4wCc-58">
          <mxGeometry relative="1" as="geometry">
            <mxPoint x="668" y="696" as="sourcePoint" />
            <Array as="points">
              <mxPoint x="580" y="650" />
              <mxPoint x="730" y="650" />
            </Array>
          </mxGeometry>
        </mxCell>
        <mxCell id="NDqvce5x4KAgi2hU4wCc-56" value="" style="image;aspect=fixed;perimeter=ellipsePerimeter;html=1;align=center;shadow=0;dashed=0;spacingTop=3;image=img/lib/active_directory/wiki_site.svg;" vertex="1" parent="1">
          <mxGeometry x="917.75" y="530" width="92.5" height="92.5" as="geometry" />
        </mxCell>
        <mxCell id="NDqvce5x4KAgi2hU4wCc-77" style="edgeStyle=orthogonalEdgeStyle;rounded=0;orthogonalLoop=1;jettySize=auto;html=1;" edge="1" parent="1" source="NDqvce5x4KAgi2hU4wCc-58" target="NDqvce5x4KAgi2hU4wCc-76">
          <mxGeometry relative="1" as="geometry">
            <Array as="points">
              <mxPoint x="790" y="350" />
              <mxPoint x="790" y="140" />
              <mxPoint x="870" y="140" />
              <mxPoint x="870" y="69" />
            </Array>
          </mxGeometry>
        </mxCell>
        <mxCell id="NDqvce5x4KAgi2hU4wCc-78" style="edgeStyle=orthogonalEdgeStyle;rounded=0;orthogonalLoop=1;jettySize=auto;html=1;" edge="1" parent="1" source="NDqvce5x4KAgi2hU4wCc-58" target="NDqvce5x4KAgi2hU4wCc-74">
          <mxGeometry relative="1" as="geometry">
            <Array as="points">
              <mxPoint x="878" y="400" />
              <mxPoint x="878" y="430" />
            </Array>
          </mxGeometry>
        </mxCell>
        <mxCell id="NDqvce5x4KAgi2hU4wCc-93" style="edgeStyle=orthogonalEdgeStyle;rounded=0;orthogonalLoop=1;jettySize=auto;html=1;" edge="1" parent="1" source="NDqvce5x4KAgi2hU4wCc-58" target="NDqvce5x4KAgi2hU4wCc-87">
          <mxGeometry relative="1" as="geometry">
            <Array as="points">
              <mxPoint x="820" y="370" />
              <mxPoint x="820" y="200" />
            </Array>
          </mxGeometry>
        </mxCell>
        <mxCell id="NDqvce5x4KAgi2hU4wCc-94" style="edgeStyle=orthogonalEdgeStyle;rounded=0;orthogonalLoop=1;jettySize=auto;html=1;" edge="1" parent="1" source="NDqvce5x4KAgi2hU4wCc-58" target="NDqvce5x4KAgi2hU4wCc-91">
          <mxGeometry relative="1" as="geometry">
            <Array as="points">
              <mxPoint x="841" y="387" />
              <mxPoint x="841" y="320" />
            </Array>
          </mxGeometry>
        </mxCell>
        <mxCell id="NDqvce5x4KAgi2hU4wCc-58" value="Amazon CloudWatch" style="sketch=0;outlineConnect=0;fontColor=#232F3E;gradientColor=none;strokeColor=#ffffff;fillColor=#232F3E;dashed=0;verticalLabelPosition=middle;verticalAlign=bottom;align=center;html=1;whiteSpace=wrap;fontSize=10;fontStyle=1;spacing=3;shape=mxgraph.aws4.productIcon;prIcon=mxgraph.aws4.cloudwatch;" vertex="1" parent="1">
          <mxGeometry x="680" y="332" width="80" height="110" as="geometry" />
        </mxCell>
        <mxCell id="NDqvce5x4KAgi2hU4wCc-74" value="AWS Budgets" style="sketch=0;outlineConnect=0;fontColor=#232F3E;gradientColor=none;strokeColor=#ffffff;fillColor=#232F3E;dashed=0;verticalLabelPosition=middle;verticalAlign=bottom;align=center;html=1;whiteSpace=wrap;fontSize=10;fontStyle=1;spacing=3;shape=mxgraph.aws4.productIcon;prIcon=mxgraph.aws4.budgets;" vertex="1" parent="1">
          <mxGeometry x="920" y="380" width="80" height="100" as="geometry" />
        </mxCell>
        <mxCell id="NDqvce5x4KAgi2hU4wCc-85" value="" style="edgeStyle=orthogonalEdgeStyle;rounded=0;orthogonalLoop=1;jettySize=auto;html=1;" edge="1" parent="1" source="NDqvce5x4KAgi2hU4wCc-76" target="NDqvce5x4KAgi2hU4wCc-102">
          <mxGeometry relative="1" as="geometry">
            <Array as="points">
              <mxPoint x="858" y="50" />
              <mxPoint x="858" y="60" />
            </Array>
            <mxPoint x="850" y="50" as="targetPoint" />
          </mxGeometry>
        </mxCell>
        <mxCell id="NDqvce5x4KAgi2hU4wCc-76" value="" style="sketch=0;outlineConnect=0;fontColor=#232F3E;gradientColor=none;fillColor=#B0084D;strokeColor=none;dashed=0;verticalLabelPosition=bottom;verticalAlign=top;align=center;html=1;fontSize=12;fontStyle=0;aspect=fixed;pointerEvents=1;shape=mxgraph.aws4.logs;" vertex="1" parent="1">
          <mxGeometry x="925" y="40" width="78" height="58" as="geometry" />
        </mxCell>
        <mxCell id="NDqvce5x4KAgi2hU4wCc-87" value="" style="sketch=0;outlineConnect=0;fontColor=#232F3E;gradientColor=none;fillColor=#B0084D;strokeColor=none;dashed=0;verticalLabelPosition=bottom;verticalAlign=top;align=center;html=1;fontSize=12;fontStyle=0;aspect=fixed;pointerEvents=1;shape=mxgraph.aws4.alarm;" vertex="1" parent="1">
          <mxGeometry x="921" y="144" width="78" height="78" as="geometry" />
        </mxCell>
        <mxCell id="NDqvce5x4KAgi2hU4wCc-88" value="CloudWatch Alarms" style="text;html=1;strokeColor=none;fillColor=none;align=center;verticalAlign=middle;whiteSpace=wrap;rounded=0;" vertex="1" parent="1">
          <mxGeometry x="925" y="222" width="70" height="30" as="geometry" />
        </mxCell>
        <mxCell id="NDqvce5x4KAgi2hU4wCc-90" value="CloudWatch Logs" style="text;html=1;strokeColor=none;fillColor=none;align=center;verticalAlign=middle;whiteSpace=wrap;rounded=0;" vertex="1" parent="1">
          <mxGeometry x="930" y="98" width="60" height="30" as="geometry" />
        </mxCell>
        <mxCell id="NDqvce5x4KAgi2hU4wCc-91" value="" style="sketch=0;outlineConnect=0;fontColor=#232F3E;gradientColor=none;fillColor=#B0084D;strokeColor=none;dashed=0;verticalLabelPosition=bottom;verticalAlign=top;align=center;html=1;fontSize=12;fontStyle=0;aspect=fixed;pointerEvents=1;shape=mxgraph.aws4.event_time_based;" vertex="1" parent="1">
          <mxGeometry x="921" y="260" width="78" height="78" as="geometry" />
        </mxCell>
        <mxCell id="NDqvce5x4KAgi2hU4wCc-92" value="CloudWatch Events" style="text;html=1;strokeColor=none;fillColor=none;align=center;verticalAlign=middle;whiteSpace=wrap;rounded=0;" vertex="1" parent="1">
          <mxGeometry x="930" y="338" width="60" height="30" as="geometry" />
        </mxCell>
        <mxCell id="NDqvce5x4KAgi2hU4wCc-95" value="AWS Lambda" style="sketch=0;outlineConnect=0;fontColor=#232F3E;gradientColor=none;strokeColor=#ffffff;fillColor=#232F3E;dashed=0;verticalLabelPosition=middle;verticalAlign=bottom;align=center;html=1;whiteSpace=wrap;fontSize=10;fontStyle=1;spacing=3;shape=mxgraph.aws4.productIcon;prIcon=mxgraph.aws4.lambda;" vertex="1" parent="1">
          <mxGeometry x="130" y="206" width="80" height="100" as="geometry" />
        </mxCell>
        <mxCell id="NDqvce5x4KAgi2hU4wCc-101" style="edgeStyle=orthogonalEdgeStyle;rounded=0;orthogonalLoop=1;jettySize=auto;html=1;startArrow=classic;startFill=1;" edge="1" parent="1" source="NDqvce5x4KAgi2hU4wCc-96" target="NDqvce5x4KAgi2hU4wCc-100">
          <mxGeometry relative="1" as="geometry" />
        </mxCell>
        <mxCell id="NDqvce5x4KAgi2hU4wCc-96" value="AWS Lambda" style="sketch=0;outlineConnect=0;fontColor=#232F3E;gradientColor=none;strokeColor=#ffffff;fillColor=#232F3E;dashed=0;verticalLabelPosition=middle;verticalAlign=bottom;align=center;html=1;whiteSpace=wrap;fontSize=10;fontStyle=1;spacing=3;shape=mxgraph.aws4.productIcon;prIcon=mxgraph.aws4.lambda;" vertex="1" parent="1">
          <mxGeometry x="540" y="688" width="80" height="100" as="geometry" />
        </mxCell>
        <mxCell id="NDqvce5x4KAgi2hU4wCc-105" style="edgeStyle=orthogonalEdgeStyle;rounded=0;orthogonalLoop=1;jettySize=auto;html=1;startArrow=classic;startFill=1;" edge="1" parent="1" source="NDqvce5x4KAgi2hU4wCc-100" target="NDqvce5x4KAgi2hU4wCc-104">
          <mxGeometry relative="1" as="geometry" />
        </mxCell>
        <mxCell id="NDqvce5x4KAgi2hU4wCc-100" value="Amazon API Gateway" style="sketch=0;outlineConnect=0;fontColor=#232F3E;gradientColor=none;strokeColor=#ffffff;fillColor=#232F3E;dashed=0;verticalLabelPosition=middle;verticalAlign=bottom;align=center;html=1;whiteSpace=wrap;fontSize=10;fontStyle=1;spacing=3;shape=mxgraph.aws4.productIcon;prIcon=mxgraph.aws4.api_gateway;" vertex="1" parent="1">
          <mxGeometry x="711" y="698" width="80" height="110" as="geometry" />
        </mxCell>
        <mxCell id="FXVNpTH87vf8RIV1V4n3-2" style="edgeStyle=orthogonalEdgeStyle;rounded=0;orthogonalLoop=1;jettySize=auto;html=1;" edge="1" parent="1" source="NDqvce5x4KAgi2hU4wCc-102" target="NDqvce5x4KAgi2hU4wCc-58">
          <mxGeometry relative="1" as="geometry">
            <Array as="points">
              <mxPoint x="751" y="221" />
              <mxPoint x="740" y="221" />
            </Array>
          </mxGeometry>
        </mxCell>
        <mxCell id="NDqvce5x4KAgi2hU4wCc-102" value="Amazon S3" style="sketch=0;outlineConnect=0;fontColor=#232F3E;gradientColor=none;strokeColor=#ffffff;fillColor=#232F3E;dashed=0;verticalLabelPosition=middle;verticalAlign=bottom;align=center;html=1;whiteSpace=wrap;fontSize=10;fontStyle=1;spacing=3;shape=mxgraph.aws4.productIcon;prIcon=mxgraph.aws4.s3;" vertex="1" parent="1">
          <mxGeometry x="711" y="10" width="80" height="100" as="geometry" />
        </mxCell>
        <mxCell id="NDqvce5x4KAgi2hU4wCc-107" style="edgeStyle=orthogonalEdgeStyle;rounded=0;orthogonalLoop=1;jettySize=auto;html=1;entryX=0;entryY=0.5;entryDx=0;entryDy=0;" edge="1" parent="1" source="NDqvce5x4KAgi2hU4wCc-104" target="NDqvce5x4KAgi2hU4wCc-56">
          <mxGeometry relative="1" as="geometry" />
        </mxCell>
        <mxCell id="NDqvce5x4KAgi2hU4wCc-104" value="Amazon Cognito" style="sketch=0;outlineConnect=0;fontColor=#232F3E;gradientColor=none;strokeColor=#ffffff;fillColor=#232F3E;dashed=0;verticalLabelPosition=middle;verticalAlign=bottom;align=center;html=1;whiteSpace=wrap;fontSize=10;fontStyle=1;spacing=3;shape=mxgraph.aws4.productIcon;prIcon=mxgraph.aws4.cognito;" vertex="1" parent="1">
          <mxGeometry x="850" y="698" width="80" height="110" as="geometry" />
        </mxCell>
        <mxCell id="NDqvce5x4KAgi2hU4wCc-108" value="Consumidor" style="text;html=1;strokeColor=none;fillColor=none;align=center;verticalAlign=middle;whiteSpace=wrap;rounded=0;" vertex="1" parent="1">
          <mxGeometry x="920" y="622.5" width="80" height="30" as="geometry" />
        </mxCell>
      </root>
    </mxGraphModel>
  </diagram>
</mxfile>
